<svg width="142" height="168" viewBox="0 0 142 168" fill="none" xmlns="http://www.w3.org/2000/svg">
<path d="M66.0366 137.142C68.4427 135.041 71.3911 133.659 74.5452 133.154C77.6993 132.648 80.9319 133.04 83.874 134.284C88.2733 136.222 91.6039 139.942 94.6941 143.621C96.2676 145.316 97.5598 147.251 98.5218 149.354C98.9927 150.618 99.3098 151.933 99.4662 153.273C99.7645 155.443 99.8059 157.821 98.588 159.636C97.8709 160.631 96.9209 161.436 95.8209 161.98C92.1258 163.96 87.7514 164.076 83.5592 164.018C82.3158 164.034 81.0735 163.937 79.8476 163.728C78.8847 163.519 77.9421 163.225 77.0307 162.85C70.6545 160.327 65.1584 155.989 61.223 150.373" stroke="#1D1D1B" stroke-miterlimit="10"/>
<path d="M53.7585 133.083L53.3608 121.194C53.2805 120.333 53.3648 119.464 53.6093 118.634C53.8923 117.982 54.2877 117.384 54.7775 116.869C58.6079 112.61 63.3442 109.264 68.6382 107.076C70.4928 106.181 72.4998 105.644 74.5536 105.494C75.5839 105.427 76.6164 105.586 77.5784 105.961C78.5403 106.336 79.4083 106.918 80.1211 107.665C81.2977 109.246 81.8839 111.189 81.7781 113.158C81.7847 115.928 81.18 118.667 80.0071 121.177C78.8343 123.687 77.1221 125.908 74.9927 127.681C69.7815 131.964 62.7062 133.075 55.9871 133.679" stroke="#1D1D1B" stroke-miterlimit="10"/>
<path d="M55.6472 146.512C55.3821 149.685 55.0921 152.941 53.6505 155.775C51.2148 160.563 45.987 163.231 40.9415 165.029C38.6406 165.947 36.2124 166.505 33.7419 166.686C33.1723 166.748 32.597 166.645 32.0849 166.388C31.7296 166.096 31.443 165.729 31.2454 165.314C31.0478 164.899 30.944 164.445 30.9416 163.985C30.2252 158.649 30.9341 153.218 32.9962 148.244C34.9846 143.472 38.1412 139.304 41.2811 135.187" stroke="#1D1D1B" stroke-miterlimit="10"/>
<path d="M49.4668 138.227C51.1238 141.267 52.8222 144.424 55.6556 146.387C56.4253 146.92 57.2608 147.352 58.1411 147.671C60.6763 148.616 63.4683 148.583 66.1775 148.425C66.7603 148.449 67.3369 148.299 67.8345 147.994C68.2719 147.609 68.5643 147.086 68.663 146.511C68.9364 145.168 68.8134 143.773 68.3089 142.498C67.8044 141.223 66.9401 140.121 65.8212 139.328C65.291 138.981 64.7374 138.671 64.1642 138.4C61.5711 137.141 58.7873 135.915 55.9207 136.246" stroke="#1D1D1B" stroke-miterlimit="10"/>
<path d="M56.2772 133.819C58.191 133.819 60.0054 134.648 61.7369 135.435C62.3592 135.712 62.965 136.024 63.5513 136.371C65.187 137.548 66.5913 139.017 67.6938 140.704" stroke="#1D1D1B" stroke-miterlimit="10"/>
<path d="M49.3261 138.053C47.4705 138.085 45.6241 137.785 43.8746 137.166C42.48 136.556 41.2792 135.576 40.4028 134.331C39.5264 133.087 39.0079 131.626 38.9036 130.107C38.8316 129.778 38.8745 129.434 39.0252 129.133C39.176 128.831 39.4255 128.59 39.7321 128.45C41.8862 127.067 44.7031 127.117 47.1886 127.622C48.5541 127.789 49.8367 128.367 50.8671 129.279C51.4592 129.92 51.8277 130.735 51.9173 131.603C52.007 132.471 51.8129 133.344 51.3642 134.092" stroke="#1D1D1B" stroke-miterlimit="10"/>
<path d="M53.2034 135.393C54.5041 135.236 55.6889 136.081 56.6665 136.967C57.9436 138.138 59.0833 139.45 60.0633 140.878C60.2522 141.118 60.375 141.404 60.4196 141.706C60.4079 141.945 60.3218 142.174 60.1732 142.362C60.0245 142.549 59.821 142.685 59.5911 142.75C59.1344 142.866 58.6559 142.866 58.1992 142.75C56.7341 142.459 55.3557 141.834 54.1705 140.925C52.9854 140.015 52.0252 138.846 51.3642 137.506L51.2399 137.788" stroke="#1D1D1B" stroke-miterlimit="10"/>
<path d="M50.2954 134.557L48.8786 133.174C48.5804 132.884 48.2821 132.594 47.959 132.345C46.2886 131.186 44.3165 130.538 42.2838 130.481" stroke="#1D1D1B" stroke-miterlimit="10"/>
<path d="M49.3839 139.926C44.1182 144.277 39.7652 149.627 36.5754 155.667C35.5315 157.648 34.5953 159.851 34.9599 162.055" stroke="#1D1D1B" stroke-miterlimit="10"/>
<path d="M47.6194 140.53C46.9508 140.292 46.2385 140.201 45.5316 140.265C44.1946 140.246 42.8591 140.365 41.5466 140.621C40.2259 140.883 39.0106 141.525 38.0504 142.468C38.111 142.515 38.1853 142.54 38.2616 142.54C38.338 142.54 38.4122 142.515 38.4729 142.468" stroke="#1D1D1B" stroke-miterlimit="10"/>
<path d="M49.5083 141.499C49.9155 144.082 49.7054 146.726 48.8952 149.212C48.307 150.994 47.4205 152.684 47.0642 154.523" stroke="#1D1D1B" stroke-miterlimit="10"/>
<path d="M43.6672 147.63C43.2787 148.746 43.0581 149.913 43.0127 151.093L42.3251 159.27" stroke="#1D1D1B" stroke-miterlimit="10"/>
<path d="M69.3506 142.46L71.7532 144.581C73.3537 146.105 75.1117 147.455 76.9976 148.608C79.2973 149.783 81.7317 150.673 84.2469 151.259L94.719 154.142" stroke="#1D1D1B" stroke-miterlimit="10"/>
<path d="M69.9554 145.162C70.2951 147.648 72.242 149.587 74.2056 151.128C78.1407 154.378 82.8654 156.53 87.9005 157.366" stroke="#1D1D1B" stroke-miterlimit="10"/>
<path d="M69.6074 149.229C69.16 150.43 69.7979 151.714 70.5104 152.833C72.158 155.31 74.2745 157.441 76.7407 159.105C76.859 158.845 76.8993 158.558 76.8567 158.276" stroke="#1D1D1B" stroke-miterlimit="10"/>
<path d="M15.8134 131.873C14.7259 132.018 13.7295 132.558 13.0131 133.389C8.47166 137.58 4.70753 142.542 1.89477 148.045C1.37278 148.922 1.06614 149.91 1 150.928C1 153.016 2.90553 154.615 4.82763 155.402C8.06704 156.736 11.6958 156.636 15.2004 156.512C16.0489 156.517 16.8965 156.457 17.7355 156.33C18.6067 156.147 19.4626 155.898 20.2956 155.584C24.0818 154.259 27.8929 152.916 31.298 150.804" stroke="#1D1D1B" stroke-miterlimit="10"/>
<path d="M39.434 132.518C39.434 132.518 39.376 134.308 29.4341 136.71C19.4921 139.113 10.2462 119.875 7.95953 115.733C5.6729 111.59 6.07057 110.762 6.3854 109.668C6.70023 108.575 8.57262 106.288 11.754 106.189C14.9354 106.089 29.0032 105.493 34.8938 107.779C40.7844 110.066 43.2533 113.247 44.5458 118.716C45.8382 124.184 44.0487 127.324 44.0487 127.324" stroke="#1D1D1B" stroke-miterlimit="10"/>
<path d="M42.5739 127.333C42.5309 126.054 42.3447 124.784 42.0188 123.547C41.7554 122.73 41.4113 121.942 40.9915 121.194C38.9377 117.408 36.0336 114.149 32.5077 111.675C32.4588 111.63 32.4012 111.596 32.3384 111.574C32.2757 111.553 32.2092 111.545 32.1432 111.55C32.0106 111.592 31.9609 111.816 32.0934 111.849" stroke="#1D1D1B" stroke-miterlimit="10"/>
<path d="M42.06 127.093C39.5745 123.207 35.2664 120.92 31.1653 118.808L29.3675 117.88C23.2118 114.698 16.7744 111.451 9.83995 111.326L10.5276 110.937" stroke="#1D1D1B" stroke-miterlimit="10"/>
<path d="M40.9498 127.738C34.4278 126.021 27.5131 126.606 21.3725 129.395" stroke="#1D1D1B" stroke-miterlimit="10"/>
<path d="M40.8754 126.562C39.6466 124.877 37.901 123.641 35.9044 123.041C35.0115 122.795 34.0999 122.623 33.1787 122.527C27.8845 121.848 22.5291 121.793 17.2219 122.361" stroke="#1D1D1B" stroke-miterlimit="10"/>
<path d="M36.6004 123.091C29.795 120.022 22.4548 118.314 14.9933 118.063L15.5153 117.822" stroke="#1D1D1B" stroke-miterlimit="10"/>
<path d="M55.8463 131.89C60.1152 127.347 65.5666 124.084 71.5877 122.47" stroke="#1D1D1B" stroke-miterlimit="10"/>
<path d="M63.5015 114.639C64.3761 119.157 63.4643 123.838 60.9581 127.696" stroke="#1D1D1B" stroke-miterlimit="10"/>
<path d="M73.0872 108.774C70.6943 115.57 66.8299 121.754 61.77 126.884" stroke="#1D1D1B" stroke-miterlimit="10"/>
<path d="M67.5609 109.644C68.9511 112.321 69.228 115.439 68.3314 118.318" stroke="#1D1D1B" stroke-miterlimit="10"/>
<path d="M73.0869 120.978C72.0251 121.041 70.9866 121.316 70.0321 121.785C69.0776 122.254 68.2262 122.909 67.5278 123.712H67.8094" stroke="#1D1D1B" stroke-miterlimit="10"/>
<path d="M81.2145 117.897C86.7157 122.039 92.2666 126.554 95.1994 132.81C96.0471 134.407 96.464 136.197 96.409 138.004C96.3666 138.905 96.0858 139.779 95.5952 140.536C95.1047 141.293 94.422 141.906 93.617 142.312" stroke="#1D1D1B" stroke-miterlimit="10"/>
<path d="M91.9683 131.723C90.0451 131.988 88.1093 132.151 86.1689 132.212C84.0391 132.34 81.9022 132.144 79.8309 131.632C77.7488 131.098 75.9107 129.871 74.6197 128.152" stroke="#1D1D1B" stroke-miterlimit="10"/>
<path d="M85.7383 126.238C84.9678 127.821 83.2528 128.682 81.513 129.13C79.6213 129.624 77.6515 129.745 75.7136 129.486C75.4085 129.484 75.1144 129.372 74.8851 129.171" stroke="#1D1D1B" stroke-miterlimit="10"/>
<path d="M10.3452 142.891C14.5082 143.674 18.7948 143.501 22.881 142.384C26.9672 141.268 30.7461 139.237 33.9324 136.446" stroke="#1D1D1B" stroke-miterlimit="10"/>
<path d="M30.9914 139.345C30.2563 140.154 29.6322 141.056 29.1356 142.03C27.8249 144.13 26.9776 146.485 26.6501 148.939" stroke="#1D1D1B" stroke-miterlimit="10"/>
<path d="M28.3321 140.256C26.1015 141.926 23.781 143.472 21.381 144.887C17.5425 146.91 13.5372 148.598 9.40929 149.933C8.3029 150.405 7.11566 150.658 5.91305 150.679C5.86041 150.666 5.80529 150.666 5.75304 150.681C5.70078 150.695 5.65316 150.723 5.6148 150.762C5.5568 150.853 5.70593 150.993 5.75564 150.902" stroke="#1D1D1B" stroke-miterlimit="10"/>
<path d="M21.8861 144.897C20.3558 145.625 19.0189 146.704 17.9839 148.045C16.9235 149.296 15.9376 150.804 16.0618 152.436" stroke="#1D1D1B" stroke-miterlimit="10"/>
<path d="M52.9713 124.16C52.1244 123.748 51.3698 123.168 50.7532 122.456C50.1367 121.744 49.6708 120.915 49.3839 120.018C48.8195 118.227 48.5865 116.349 48.6963 114.475C48.6661 113.099 48.8966 111.73 49.3756 110.44C52.3237 110.878 55.0091 112.381 56.9232 114.666" stroke="#1D1D1B" stroke-miterlimit="10"/>
<path d="M56.5671 101.201C54.6663 104.422 52.2025 107.276 49.2929 109.627C48.7072 110.209 47.9301 110.56 47.1057 110.613C46.0038 110.555 45.225 109.527 44.6865 108.558C44.473 108.204 44.3033 107.826 44.1811 107.431C44.0761 106.972 44.0288 106.502 44.0403 106.031C44.0112 105.101 44.0611 104.169 44.1894 103.247C44.4182 101.85 44.9531 100.521 45.7557 99.3552C46.5583 98.1891 47.6089 97.2149 48.8321 96.5024C50.0553 95.7898 51.421 95.3565 52.8312 95.2336C54.2415 95.1106 55.6615 95.301 56.9896 95.791" stroke="#1D1D1B" stroke-miterlimit="10"/>
<path d="M56.923 96.2054C55.8077 96.5928 54.7959 97.2305 53.9653 98.0696C51.298 100.533 49.3021 103.635 48.1659 107.084C47.9105 105.372 47.8743 103.635 48.0582 101.914" stroke="#1D1D1B" stroke-miterlimit="10"/>
<path d="M48.1827 116.762C47.8367 117.53 47.3727 118.24 46.8074 118.866C46.6877 119.011 46.534 119.125 46.3601 119.197C46.2015 119.224 46.0387 119.203 45.8916 119.138C45.7445 119.074 45.6194 118.967 45.5316 118.833C45.3686 118.548 45.2696 118.232 45.2416 117.905C45.0614 116.91 45.0002 115.898 45.0593 114.889C45.12 113.871 45.4803 112.894 46.0949 112.081C46.6001 111.528 47.1769 111.046 47.8099 110.647" stroke="#1D1D1B" stroke-miterlimit="10"/>
<path d="M47.379 125.791C47.8844 125.136 48.4726 124.54 48.9614 123.877C49.4733 123.221 49.7995 122.44 49.9059 121.615" stroke="#1D1D1B" stroke-miterlimit="10"/>
<path d="M46.3684 110.646C45.2359 110.892 44.0684 110.931 42.9219 110.762C41.4767 110.496 40.1787 109.711 39.2723 108.554C38.3659 107.397 37.9137 105.949 38.0006 104.482" stroke="#1D1D1B" stroke-miterlimit="10"/>
<path d="M44.4959 101.235C44.5539 101.103 44.4959 100.962 44.3717 100.846C44.0832 100.403 43.7085 100.023 43.2698 99.7276C42.5843 99.4107 41.8235 99.293 41.0743 99.3879" stroke="#1D1D1B" stroke-miterlimit="10"/>
<path d="M40.3534 103.704C40.3534 103.704 28.7545 105.941 18.6552 98.5594C8.5559 91.1775 10.4531 77.3831 10.4531 77.3831C10.4531 77.3831 10.7514 74.7734 11.4225 73.804C12.0936 72.8347 15.449 73.3566 15.449 73.3566C15.449 73.3566 28.8705 75.0136 35.2085 79.8437C41.5465 84.6738 40.7345 88.3441 41.1074 90.1336C41.4802 91.9231 41.1074 103.257 41.1074 103.257" stroke="#1D1D1B" stroke-miterlimit="10"/>
<path d="M39.3427 103.621C39.4347 102.566 39.2875 101.504 38.9118 100.514C37.7269 96.7814 35.7867 93.3324 33.2118 90.3816C32.7907 89.8928 32.3367 89.4333 31.8531 89.0063C29.2019 86.7445 25.4571 86.2557 22.5657 84.317C21.4784 83.5281 20.4661 82.6406 19.5417 81.6659C18.4711 80.6398 17.4822 79.5318 16.584 78.3519C15.6395 77.0594 14.927 75.593 13.6677 74.574" stroke="#1D1D1B" stroke-miterlimit="10"/>
<path d="M38.5223 105.237C32.7319 105.696 26.9143 105.696 21.1239 105.237C19.4669 105.104 17.6525 104.814 16.7661 103.447C16.5573 103.159 16.4381 102.816 16.4233 102.461C16.4086 102.106 16.499 101.754 16.6832 101.45C16.7867 101.313 16.9216 101.202 17.0766 101.128C17.2316 101.053 17.4023 101.017 17.5743 101.021C17.7462 101.026 17.9146 101.072 18.0651 101.156C18.2157 101.239 18.3441 101.357 18.4396 101.5" stroke="#1D1D1B" stroke-miterlimit="10"/>
<path d="M79.1184 80.257L76.4175 86.0564C75.7713 87.44 75.1251 88.8319 74.3877 90.1989C73.9652 90.9528 73.5095 91.6984 73.0455 92.4358C68.2709 100.01 62.4435 106.867 55.7383 112.8" stroke="#1D1D1B" stroke-miterlimit="10"/>
<path d="M68.605 88.3929C69.127 91.7566 67.9837 95.1369 66.8569 98.3349C66.1113 100.464 65.3325 102.651 63.8412 104.35" stroke="#1D1D1B" stroke-miterlimit="10"/>
<path d="M61.9852 93.6957C62.2669 98.0535 61.2645 102.378 60.262 106.628C60.0922 107.559 59.7822 108.459 59.3424 109.296" stroke="#1D1D1B" stroke-miterlimit="10"/>
<path d="M57.495 110.987C56.8596 107.454 56.483 103.879 56.3683 100.291C56.2591 96.6926 56.9348 93.1134 58.3484 89.8024C59.6659 87.1013 61.4592 84.6597 63.6424 82.5945C64.5907 81.7348 65.5894 80.9325 66.6333 80.1919C69.9473 77.7644 73.6506 75.5358 77.7434 74.9558C79.4004 74.7238 81.3142 74.8481 82.4658 76.0826C83.084 76.8369 83.4952 77.7392 83.6588 78.7006C84.4906 82.4293 84.7089 86.2686 84.305 90.0675C84.0994 93.0625 83.4718 96.0135 82.4409 98.833C81.4026 101.666 79.6436 104.179 77.3374 106.124" stroke="#1D1D1B" stroke-miterlimit="10"/>
<path d="M56.7491 93.0746C56.2671 92.3416 55.8854 91.5475 55.6141 90.7134C55.349 89.4288 55.3745 88.1012 55.6886 86.8277C55.8154 85.6288 56.2586 84.4851 56.9728 83.5138C57.1932 83.1826 57.5254 82.9417 57.9087 82.8352C58.2921 82.7288 58.7009 82.7637 59.0606 82.9338C59.2846 83.1162 59.4508 83.3597 59.539 83.6347C59.6273 83.9097 59.6338 84.2045 59.5577 84.4831C59.3999 85.0362 59.1745 85.5677 58.8866 86.0655C58.3391 87.2212 58.0749 88.4907 58.1161 89.7689" stroke="#1D1D1B" stroke-miterlimit="10"/>
<path d="M56.7823 93.5803L49.591 92.7518C47.9755 92.5695 46.2274 92.3292 45.084 91.1859" stroke="#1D1D1B" stroke-miterlimit="10"/>
<path d="M53.4023 91.9143L50.9168 89.8928C49.9557 89.0643 48.9864 88.3269 47.9839 87.5896C47.5944 87.2781 47.1786 87.0009 46.7412 86.7611C46.2537 86.5327 45.7497 86.3416 45.2333 86.1894L42.1348 85.2118C41.4197 84.925 40.6506 84.7978 39.8813 84.839" stroke="#1D1D1B" stroke-miterlimit="10"/>
<path d="M55.838 84.2513C55.7054 83.0417 54.6035 82.2132 53.5928 81.5338L51.9358 80.3905C51.389 80.0177 50.8339 79.6532 50.2788 79.3135C47.2051 77.4825 43.6508 76.6209 40.1298 75.9995C38.6343 75.8546 37.1848 75.4034 35.8713 74.6739C34.6203 73.8454 33.7421 72.2464 34.2143 70.838C34.4045 70.3858 34.6974 69.9841 35.0699 69.6648C35.4424 69.3455 35.8841 69.1175 36.3601 68.9987C37.3159 68.7748 38.3123 68.7919 39.2598 69.0485C40.8028 69.4039 42.2465 70.1003 43.4851 71.0865C44.2842 71.7447 45.0218 72.474 45.6889 73.2655C45.8707 73.4832 46.0702 73.6855 46.2855 73.8703C46.5062 74.0337 46.7389 74.1804 46.9814 74.3094C48.3366 75.0488 49.5714 75.9903 50.6433 77.1014C51.1736 77.6399 51.6624 78.2281 52.1429 78.8081L53.0957 79.9431C53.9242 80.9787 54.8106 82.0061 55.6474 83.0583" stroke="#1D1D1B" stroke-miterlimit="10"/>
<path d="M30.5524 77.2586C30.4196 77.1527 30.3144 77.0163 30.2458 76.8609C29.9847 76.4124 29.7946 75.9261 29.6825 75.4194C29.6205 75.0964 29.6205 74.7647 29.6825 74.4418C29.8073 74.0025 30.0313 73.5978 30.3373 73.2588C30.6432 72.9198 31.023 72.6556 31.4472 72.4865C32.2977 72.1529 33.2247 72.0639 34.1232 72.2297" stroke="#1D1D1B" stroke-miterlimit="10"/>
<path d="M55.1336 92.395C55.1336 92.395 52.7807 85.7008 47.2298 81.4838C41.6789 77.2668 33.2614 78.1698 33.2614 78.1698" stroke="#1D1D1B" stroke-miterlimit="10"/>
<path d="M102.209 97.2911C102.209 97.2911 106.757 121.268 110.933 126.239C115.108 131.21 125.846 134.863 129.052 134.275C132.258 133.687 133.194 121.74 132.78 117.829C132.366 113.919 125.1 103.629 125.1 103.629" stroke="#1D1D1B" stroke-miterlimit="10"/>
<path d="M105.804 114.515C105.804 114.515 101.554 118.608 99.2427 118.989C96.9312 119.37 86.8153 120.729 84.0316 116.752C81.2478 112.776 90.7424 93.1817 93.8741 92.9249C97.0058 92.6681 95.8873 93.0409 97.0058 92.6681C98.1242 92.2952 98.1242 89.9092 98.1242 89.9092" stroke="#1D1D1B" stroke-miterlimit="10"/>
<path d="M110.461 88.7832C111.371 88.4659 112.323 88.2791 113.286 88.2281C117.925 87.8304 122.772 88.5429 126.765 90.9456C127.635 91.4291 128.403 92.0761 129.027 92.8511C129.799 93.9921 130.275 95.3077 130.411 96.6787C130.512 97.2252 130.529 97.7841 130.46 98.3357C130.304 99.0461 129.974 99.7066 129.499 100.258C127.362 102.926 123.7 103.978 120.278 103.679C116.857 103.381 113.692 101.915 110.693 100.299C109.736 99.8293 108.847 99.233 108.05 98.5263C107.26 97.7617 106.676 96.8108 106.35 95.7612C106.024 94.7116 105.968 93.5969 106.186 92.5197C106.633 90.8793 108.961 89.3631 110.461 88.7832Z" stroke="#1D1D1B" stroke-miterlimit="10"/>
<path d="M111.082 91.4751C112.159 91.939 112.739 93.0575 113.377 94.06C114.014 95.0624 114.752 96.1312 115.912 96.3549C116.41 96.4007 116.911 96.4173 117.411 96.4046C117.662 96.3971 117.911 96.4496 118.137 96.5576C118.363 96.6657 118.56 96.8263 118.712 97.026C118.844 97.3107 118.872 97.6329 118.79 97.936C118.708 98.2391 118.522 98.5036 118.265 98.683C117.724 99.0262 117.089 99.1887 116.45 99.1469C113.952 99.0876 111.555 98.1487 109.681 96.4957C108.53 95.5181 107.113 93.9523 107.014 92.3533C106.914 90.7543 110.046 91.0277 111.082 91.4751Z" stroke="#1D1D1B" stroke-miterlimit="10"/>
<path d="M99.8308 96.4631C99.5245 96.0995 99.2935 95.6786 99.1513 95.2249C99.009 94.7712 98.9584 94.2937 99.0024 93.8203C98.9791 93.1711 99.0832 92.5238 99.3089 91.9147C99.4254 91.6123 99.6012 91.3363 99.826 91.103C100.051 90.8696 100.32 90.6836 100.618 90.556C102.706 89.7275 105.647 92.6686 105.539 94.6985C105.382 97.0928 101.347 97.913 99.8308 96.4631Z" stroke="#1D1D1B" stroke-miterlimit="10"/>
<path d="M102.938 90.9198L101.869 89.2628C101.472 88.7364 101.189 88.1324 101.04 87.4899C101.013 86.939 101.111 86.3891 101.326 85.8812C101.541 85.3734 101.868 84.9207 102.283 84.557C103.72 83.1085 105.647 82.2512 107.685 82.1544C108.443 82.0818 109.206 82.2406 109.872 82.61C110.283 82.907 110.624 83.2899 110.871 83.732C111.119 84.1741 111.267 84.6649 111.305 85.1701C111.489 86.5037 111.195 87.8592 110.477 88.9977" stroke="#1D1D1B" stroke-miterlimit="10"/>
<path d="M109.947 82.139C111.141 78.2587 113.714 74.9494 117.179 72.8351C122.846 69.5211 137.718 65.4532 140.593 67.9138C143.468 70.3744 132.987 87.9716 131.048 89.9103C129.11 91.849 128.033 91.8407 128.033 91.8407" stroke="#1D1D1B" stroke-miterlimit="10"/>
<path d="M113.857 88.0791C115.61 87.1077 117.203 85.8726 118.58 84.4171C120.826 82.4421 122.817 80.1931 124.504 77.7229" stroke="#1D1D1B" stroke-miterlimit="10"/>
<path d="M116.326 88.17C120.259 87.0389 123.792 84.8188 126.517 81.7658C129.229 78.7029 130.77 74.7789 130.866 70.6888" stroke="#1D1D1B" stroke-miterlimit="10"/>
<path d="M138.116 71.0691C137.283 72.9285 136.143 74.6343 134.744 76.1146L132.921 78.2687C132.287 79.0597 131.604 79.8096 130.875 80.5139C129.937 81.3401 128.94 82.0961 127.892 82.7757C124.769 84.9132 121.571 87.0838 117.95 88.0863" stroke="#1D1D1B" stroke-miterlimit="10"/>
<path d="M130.949 84.8718C128.621 86.4625 125.871 87.291 123.161 88.0864C122.103 88.4812 120.976 88.6587 119.847 88.6083H120.32" stroke="#1D1D1B" stroke-miterlimit="10"/>
<path d="M99.9136 90.7131C99.7688 89.944 99.3998 89.2349 98.8531 88.675C98.3063 88.2276 97.4944 88.0536 97.1961 87.4156" stroke="#1D1D1B" stroke-miterlimit="10"/>
<path d="M97.8425 90.6219C97.2866 90.9818 96.6986 91.2896 96.0861 91.5415C95.5004 91.8024 94.8766 91.9675 94.2386 92.0303C93.9005 92.0806 93.5552 92.0317 93.2444 91.8895C93.0664 91.7868 92.9091 91.652 92.7804 91.4918C92.2112 90.809 91.8567 89.973 91.7614 89.0892C91.6786 88.2102 91.6786 87.3253 91.7614 86.4463V86.7031" stroke="#1D1D1B" stroke-miterlimit="10"/>
<path d="M89.8392 97.1592C90.212 94.9885 89.3172 92.8344 88.4473 90.8212C88.2637 90.3381 88.0127 89.8835 87.7016 89.4707C87.6066 89.3347 87.4834 89.2207 87.3405 89.1364C87.1975 89.0521 87.0382 88.9994 86.8732 88.9819C86.6884 89.0115 86.5146 89.089 86.3692 89.2068C86.2239 89.3246 86.1119 89.4784 86.0447 89.653C85.879 89.9927 85.8044 90.3738 85.6553 90.7301C85.36 91.2837 84.986 91.7915 84.5451 92.2379C83.712 93.1526 83.1397 94.2742 82.8881 95.4856C82.7686 96.0884 82.7808 96.71 82.9238 97.3077C83.0668 97.9054 83.3372 98.4652 83.7166 98.9487C84.1108 99.4203 84.6366 99.7636 85.227 99.9348C85.8173 100.106 86.4452 100.097 87.0306 99.9097C87.5998 99.6518 88.1209 99.2988 88.5716 98.8658" stroke="#1D1D1B" stroke-miterlimit="10"/>
<path d="M89.2342 86.7781C89.081 87.1499 88.8557 87.4877 88.5713 87.7721C88.2869 88.0565 87.9491 88.2818 87.5773 88.4351C86.8137 88.7242 85.9983 88.8511 85.1829 88.8079C84.9012 88.8079 84.5284 88.7085 84.4953 88.4268" stroke="#1D1D1B" stroke-miterlimit="10"/>
<path d="M89.0106 73.0834C87.2985 72.9001 85.5675 73.0235 83.8988 73.448C83.4587 73.5851 83.0424 73.7891 82.6643 74.0528C82.1811 74.4073 81.8101 74.8933 81.5955 75.4529" stroke="#1D1D1B" stroke-miterlimit="10"/>
<path d="M99.0024 85.9993C98.8947 86.2282 98.736 86.4294 98.5385 86.5875C98.2897 86.7456 98.0043 86.8369 97.71 86.8526C96.2639 87.1228 94.7833 87.1536 93.3273 86.9438C91.8607 86.7233 90.5225 85.9822 89.5576 84.856C88.6224 83.4644 88.0891 81.8418 88.0166 80.1667C87.9347 79.6177 87.8849 79.0645 87.8675 78.5097C87.8731 77.5264 87.9618 76.5453 88.1326 75.5769C89.0688 69.2555 90.0298 62.8264 92.7473 57.0435C92.9012 56.6729 93.1169 56.3311 93.3852 56.0327C93.7271 55.7509 94.1408 55.5699 94.5797 55.5099C95.0187 55.4499 95.4657 55.5133 95.8707 55.693C96.6706 56.0551 97.3956 56.5637 98.0082 57.1926L100.005 58.9987C100.74 59.6014 101.4 60.2914 101.968 61.0534C102.423 61.7726 102.785 62.5465 103.045 63.3566C104.221 66.5319 104.71 69.9205 104.479 73.2985C104.073 78.1535 101.355 81.948 99.0024 85.9993Z" stroke="#1D1D1B" stroke-miterlimit="10"/>
<path d="M99.9551 68.8328C96.9088 74.2397 95.7433 80.5047 96.6411 86.6453" stroke="#1D1D1B" stroke-miterlimit="10"/>
<path d="M91.0985 77.0093C91.6134 77.2178 92.0811 77.5277 92.4738 77.9206C92.9614 78.4622 93.3738 79.0669 93.7 79.7184L95.183 82.3613C95.4233 82.7922 95.6635 83.1898 95.8789 83.6621C96.2866 84.4906 96.606 85.3598 96.8317 86.2552" stroke="#1D1D1B" stroke-miterlimit="10"/>
<path d="M94.777 60.9038L95.1167 64.1681C95.7795 70.5392 96.4423 76.9517 95.9452 83.3394" stroke="#1D1D1B" stroke-miterlimit="10"/>
<path d="M105.357 82.7687C104.506 80.4186 104.35 77.8728 104.91 75.4366C105.471 73.0208 106.355 70.6913 107.536 68.5104C108.335 66.8089 109.349 65.2163 110.552 63.7714C112.278 61.9865 114.243 60.4502 116.393 59.2064" stroke="#1D1D1B" stroke-miterlimit="10"/>
<path d="M127.95 59.4622C128.474 59.8747 128.83 60.4636 128.952 61.1191C129.077 61.7519 129.127 62.3969 129.102 63.0412C129.134 64.0613 129.07 65.082 128.911 66.0901C128.746 67.0985 128.311 68.0434 127.652 68.8241" stroke="#1D1D1B" stroke-miterlimit="10"/>
<path d="M91.7199 47.7971C91.7199 47.7971 109.499 58.6835 117.254 59.396C122.121 59.8335 127.021 59.7418 131.869 59.1226C131.869 59.1226 135.348 57.1591 135.348 54.3008C135.348 51.4425 131.935 47.7971 131.935 47.7971C131.935 47.7971 129.491 43.4227 119.184 42.2297C108.878 41.0366 93.5012 47.0018 93.5012 47.0018" stroke="#1D1D1B" stroke-miterlimit="10"/>
<path d="M95.0339 55.4859C94.8847 54.21 95.3901 52.7685 94.6611 51.6997C94.4132 51.3428 94.0761 51.0572 93.6834 50.8712C91.9187 49.9682 89.6984 50.5481 88.1408 51.766C86.665 53.0887 85.4582 54.6837 84.5866 56.4635C84.224 57.0643 83.9162 57.6965 83.667 58.3525C83.5158 58.8148 83.4022 59.2886 83.3273 59.7692C82.794 62.2851 82.865 64.8916 83.5344 67.3748C83.8763 68.6109 84.4802 69.759 85.305 70.7411C86.1298 71.7231 87.1563 72.5162 88.3148 73.0665" stroke="#1D1D1B" stroke-miterlimit="10"/>
<path d="M88.2321 73.049C87.9359 72.6496 87.727 72.1923 87.619 71.7069C87.1298 69.8618 87.0208 67.9366 87.2985 66.048C87.5762 64.1595 88.2349 62.3472 89.2346 60.7211" stroke="#1D1D1B" stroke-miterlimit="10"/>
<path d="M95.4728 47.3823C101.649 46.7911 107.881 47.2619 113.898 48.7742C114.694 48.996 115.502 49.173 116.318 49.3044C117.196 49.4287 118.091 49.4204 118.969 49.5198C120.617 49.7742 122.23 50.2219 123.774 50.8537L131.562 53.6705" stroke="#1D1D1B" stroke-miterlimit="10"/>
<path d="M124.992 55.5359C121.786 55.9005 118.439 56.2567 115.406 55.1382C114.617 54.834 113.848 54.4798 113.103 54.0778C110.816 52.9096 108.447 51.6669 106.881 49.6205" stroke="#1D1D1B" stroke-miterlimit="10"/>
<path d="M84.893 56.0826C84.893 55.0718 84.893 54.0527 84.893 53.0337C84.9188 52.7127 84.8851 52.3897 84.7936 52.0809C84.6882 51.8266 84.5458 51.5893 84.3711 51.3767C83.6935 50.314 82.8121 49.3961 81.7779 48.6758C81.4797 48.4825 81.1435 48.3554 80.792 48.303C80.4201 48.2631 80.0441 48.3182 79.6993 48.4631C79.3545 48.608 79.052 48.838 78.8202 49.1315C78.368 49.7364 78.0978 50.4579 78.0414 51.211C77.9668 51.7608 77.9668 52.3182 78.0414 52.868C78.0909 53.1725 78.1573 53.4739 78.2402 53.7711C78.597 54.9067 79.2531 55.9252 80.1394 56.7197C81.0258 57.5142 82.1097 58.0554 83.2775 58.2863" stroke="#1D1D1B" stroke-miterlimit="10"/>
<path d="M87.5111 51.9397C87.7511 51.4466 87.8908 50.9107 87.9221 50.3631C87.9534 49.8156 87.8756 49.2673 87.6934 48.75" stroke="#1D1D1B" stroke-miterlimit="10"/>
<path d="M86.0777 47.9215C85.867 48.4471 85.5884 48.9428 85.2493 49.3962C84.8922 50.3552 84.8231 51.3976 85.0504 52.3954" stroke="#1D1D1B" stroke-miterlimit="10"/>
<path d="M84.5535 47.7978C84.1807 47.599 83.8078 47.3753 83.4433 47.1516L81.3472 45.8757C80.7496 45.5582 80.1931 45.1687 79.6902 44.7158C79.3638 44.4353 79.1158 44.0747 78.9706 43.6696C78.8254 43.2644 78.7879 42.8284 78.8618 42.4044C79.0125 41.9788 79.2463 41.5874 79.5494 41.2528C80.198 40.2479 81.1249 39.4534 82.2171 38.9661C82.8332 38.8056 83.4708 38.7441 84.1061 38.7838C84.8669 38.7209 85.629 38.8883 86.2933 39.2644C86.6994 39.549 87.041 39.916 87.2958 40.3414C88.7435 42.7707 89.6506 45.4835 89.9553 48.2949C90.1458 50.0431 89.5824 49.4962 88.2983 49.1234C87.0089 48.8077 85.7544 48.3636 84.5535 47.7978V47.7978Z" stroke="#1D1D1B" stroke-miterlimit="10"/>
<path d="M89.3008 43.9953C89.889 43.7468 90.3944 43.3574 90.9578 43.0674C92.4844 42.4345 94.1419 42.1815 95.7879 42.33C96.2107 42.3089 96.6335 42.3737 97.0306 42.5206C97.228 42.5999 97.3965 42.7376 97.5134 42.9153C97.6304 43.093 97.6903 43.3021 97.6851 43.5148C97.6728 43.6503 97.6073 43.7755 97.5028 43.8628C97.4272 43.9172 97.3433 43.9592 97.2543 43.987C96.0364 44.4593 95.1913 45.5612 94.0895 46.2654C93.605 46.5615 93.0981 46.8191 92.5733 47.0359L89.8973 48.2206" stroke="#1D1D1B" stroke-miterlimit="10"/>
<path d="M82.217 63.538C82.4625 66.0294 82.0661 68.5422 81.0654 70.837C80.6889 71.8313 80.1484 72.7554 79.4664 73.571C78.6293 74.4167 77.6784 75.1417 76.6413 75.7251C75.0247 76.8182 73.294 77.7321 71.4798 78.4509C68.87 79.3705 66.0532 79.4533 63.2943 79.5279L55.5313 79.7433C54.214 79.7433 52.6647 79.7433 51.9274 78.6083C51.6116 78.0558 51.4459 77.4303 51.4468 76.7939C51.2232 72.9911 51.9854 69.1966 52.8387 65.485C53.4601 62.7924 54.1726 60.0252 55.8876 57.8628C57.3839 55.973 59.5207 54.6967 61.8941 54.2755C66.426 53.4884 70.6844 55.8662 74.9097 57.0675C76.2933 57.4652 78.3811 57.258 79.6156 57.896C81.2643 58.857 82.0099 61.823 82.217 63.538Z" stroke="#1D1D1B" stroke-miterlimit="10"/>
<path d="M78.8535 58.708C72.5508 66.6813 64.0031 72.5828 54.3136 75.6507L54.7692 75.4601" stroke="#1D1D1B" stroke-miterlimit="10"/>
<path d="M77.8094 59.5624L71.4134 61.8822C70.4364 62.2466 69.4408 62.5591 68.4308 62.8184C65.9715 63.2632 63.4631 63.3719 60.9744 63.1415C60.7742 63.1513 60.5755 63.1023 60.4028 63.0006C60.3604 62.9741 60.3241 62.939 60.2962 62.8975C60.2683 62.856 60.2495 62.8092 60.2409 62.76C60.2323 62.7107 60.2341 62.6603 60.2463 62.6118C60.2585 62.5633 60.2808 62.518 60.3116 62.4787" stroke="#1D1D1B" stroke-miterlimit="10"/>
<path d="M74.6282 64.0188C73.9021 64.0716 73.1971 64.2868 72.5652 64.6484C68.2571 66.5954 63.3938 66.8025 58.6631 66.9765" stroke="#1D1D1B" stroke-miterlimit="10"/>
<path d="M51.3724 75.2868C48.0777 74.3035 45.2664 72.1301 43.4852 69.1891C41.4222 65.7591 40.9997 61.6249 40.5606 57.6316C40.2586 55.5571 40.2169 53.453 40.4363 51.3682C40.6695 49.2631 41.6728 47.3185 43.2532 45.9084" stroke="#1D1D1B" stroke-miterlimit="10"/>
<path d="M42.3502 67.4568C40.3285 66.4513 38.5668 64.9917 37.2029 63.1923C35.8389 61.3929 34.9097 59.3023 34.4878 57.0841C34.2517 55.5103 34.1436 53.9199 34.1647 52.3286C34.1038 51.7197 34.2038 51.1054 34.4547 50.5473C34.7262 50.1585 35.1085 49.8604 35.5519 49.692C35.9952 49.5235 36.479 49.4924 36.9402 49.6028C37.8849 49.8465 38.7664 50.29 39.5251 50.9035" stroke="#1D1D1B" stroke-miterlimit="10"/>
<path d="M53.9985 63.9442C53.1037 58.6915 50.0052 54.0023 46.2273 50.2823" stroke="#1D1D1B" stroke-miterlimit="10"/>
<path d="M52.524 58.7749C52.1227 57.8425 51.4194 57.0721 50.5273 56.5877C49.1535 55.7319 47.6045 55.1967 45.9955 55.0219" stroke="#1D1D1B" stroke-miterlimit="10"/>
<path d="M53.6838 60.1416C53.9379 58.8718 53.8022 57.5549 53.2944 56.3637C52.9878 55.6346 52.5404 54.9635 52.3002 54.2096" stroke="#1D1D1B" stroke-miterlimit="10"/>
<path d="M70.4443 55.9326C70.1577 55.8787 69.8881 55.7574 69.6576 55.5788C69.4271 55.4002 69.2424 55.1693 69.1187 54.9053C68.8786 54.3836 68.7381 53.8216 68.7045 53.2483C68.429 51.3914 68.6198 49.4953 69.2596 47.7305C69.7695 46.5288 70.5785 45.4777 71.6096 44.6771C72.6407 43.8766 73.8596 43.3534 75.1502 43.1572C75.4742 43.0871 75.8089 43.0825 76.1348 43.1436C76.4606 43.2048 76.7709 43.3306 77.0474 43.5135C77.2633 43.7 77.431 43.9359 77.5362 44.2011C77.719 44.8035 77.7481 45.4421 77.6208 46.0586C77.4934 46.6751 77.2137 47.2499 76.8071 47.7305C76.0698 48.7496 75.1004 49.5946 74.4625 50.6799C73.4269 52.4198 73.3523 54.5573 73.4352 56.5788" stroke="#1D1D1B" stroke-miterlimit="10"/>
<path d="M72.6645 56.4224C72.7556 55.8425 72.2005 55.3868 71.9602 54.8483C71.8268 54.4456 71.7843 54.0183 71.836 53.5972V50.449C71.836 49.5376 71.9023 48.4689 72.6645 47.9635" stroke="#1D1D1B" stroke-miterlimit="10"/>
<path d="M68.2819 54.8387C67.4149 53.7035 66.3782 52.7086 65.2082 51.8892C64.763 51.6405 64.3341 51.3638 63.924 51.0607C63.1356 50.3318 62.5625 49.4004 62.267 48.3681C61.8949 47.5339 61.7907 46.6047 61.9688 45.7087C62.0856 45.269 62.3715 44.8934 62.7641 44.6637C63.1568 44.434 63.6244 44.3689 64.0649 44.4825C64.86 45.2663 65.576 46.1266 66.2024 47.0508C66.542 47.5562 66.8569 48.0865 67.1717 48.6167L68.6298 51.1022" stroke="#1D1D1B" stroke-miterlimit="10"/>
<path d="M55.2661 52.5277L47.528 50.0422C46.6676 49.797 45.8347 49.4638 45.0425 49.048C44.1788 48.5103 43.3808 47.8736 42.6647 47.1508L37.5364 42.329C35.49 40.4151 33.2613 38.0374 33.6176 35.2536C37.1635 33.9032 41.074 33.6712 44.8271 33.7624C49.7483 33.8783 55.0921 34.7317 58.4309 38.3439C60.2484 40.4664 61.401 43.077 61.7449 45.8501C61.952 47.1425 62.9379 53.0331 61.9355 53.9776C60.933 54.922 56.426 52.9088 55.2661 52.5277Z" stroke="#1D1D1B" stroke-miterlimit="10"/>
<path d="M36.327 37.1931C45.5559 39.0037 53.9947 43.6357 60.4776 50.449" stroke="#1D1D1B" stroke-miterlimit="10"/>
<path d="M84.9014 40.6386C78.8948 41.4008 72.6646 42.1465 66.8651 40.4232C65.1883 39.8886 63.5496 39.2408 61.9604 38.4845C57.3872 36.405 52.847 34.0935 49.0691 30.7713C47.573 29.4525 46.213 27.987 45.0095 26.3968C44.7294 26.0778 44.5279 25.6976 44.4213 25.2866C44.4115 24.8459 44.5107 24.4096 44.7102 24.0164C44.9096 23.6233 45.2031 23.2855 45.5646 23.0331C50.8918 18.1865 59.1767 17.6314 65.8875 20.266C72.5983 22.9006 77.9006 28.2278 82.1508 34.0438C83.1609 35.3639 84.0405 36.779 84.7771 38.2691" stroke="#1D1D1B" stroke-miterlimit="10"/>
<path d="M83.9901 39.2562C80.3116 38.7756 77.1799 36.3979 74.4624 33.8793C71.7449 31.3606 69.1518 28.5686 65.8295 26.9282C61.5959 24.8404 56.6664 24.8487 51.9523 24.9812" stroke="#1D1D1B" stroke-miterlimit="10"/>
<path d="M71.7863 31.8234C69.3008 30.5476 66.3514 30.5227 63.5014 30.531L63.8494 30.3322" stroke="#1D1D1B" stroke-miterlimit="10"/>
<path d="M78.2405 36.3966C76.7715 35.0904 75.5773 33.5047 74.7277 31.7321C74.1974 30.622 73.808 29.4455 73.2281 28.3602C72.7036 27.2361 71.8324 26.3098 70.7426 25.7173H71.0077" stroke="#1D1D1B" stroke-miterlimit="10"/>
<path d="M61.3557 23.2577C63.9986 23.6554 66.1527 25.5112 68.1494 27.2842L69.3507 28.3861C70.1378 28.9687 70.7532 29.753 71.1319 30.6561" stroke="#1D1D1B" stroke-miterlimit="10"/>
<path d="M110.261 63.8873C109.94 63.5733 109.548 63.3405 109.118 63.2079C108.08 62.8705 106.963 62.8528 105.915 63.1571C104.866 63.4614 103.933 64.0737 103.236 64.9146" stroke="#1D1D1B" stroke-miterlimit="10"/>
<path d="M88.9445 43.456C90.2035 42.4023 91.044 40.9329 91.314 39.3135C91.3955 38.7456 91.4315 38.1721 91.4217 37.5985C91.4512 36.8772 91.353 36.1564 91.1317 35.4693C90.9905 35.1259 90.8186 34.7959 90.6181 34.4834C89.6475 32.8849 88.469 31.4222 87.1136 30.1338C86.7468 29.8342 86.4355 29.4724 86.1939 29.065C86.0032 28.6389 85.8936 28.1809 85.8708 27.7146C85.7965 27.3963 85.7898 27.0659 85.8511 26.7447C85.9125 26.4236 86.0406 26.119 86.2271 25.8505C86.3921 25.6949 86.5864 25.5738 86.7987 25.4942C87.2735 25.3393 87.7792 25.3044 88.2707 25.3926C88.7623 25.4808 89.2243 25.6893 89.6156 25.9996C90.3922 26.6247 90.9967 27.4373 91.372 28.3608C92.1431 30.1607 92.5059 32.1091 92.4343 34.0659C92.3626 36.0227 91.8584 37.9393 90.9578 39.678" stroke="#1D1D1B" stroke-miterlimit="10"/>
<path d="M91.5791 42.5775C93.1532 40.44 95.8624 39.5121 98.3478 38.6836C98.7799 38.538 99.2197 38.4163 99.6651 38.3191C100.063 38.2528 100.494 38.2196 100.858 38.1534C101.639 38.0095 102.387 37.729 103.07 37.3249C103.529 37.0874 103.922 36.7401 104.214 36.3141C104.358 36.1013 104.448 35.8558 104.474 35.5998C104.5 35.3437 104.462 35.0853 104.363 34.8477C104.189 34.5011 103.894 34.23 103.534 34.0855C102.391 33.5884 101.049 34.0026 99.9303 34.508C96.3855 36.0826 93.2816 38.5037 90.8914 41.5585" stroke="#1D1D1B" stroke-miterlimit="10"/>
<path d="M91.0901 27.4244C90.8601 26.9211 90.7549 26.3697 90.7835 25.8171C90.7707 22.1556 92.0299 18.6034 94.3461 15.7675C96.6084 13.1581 99.5044 11.1752 102.755 10.0095C103.258 9.7921 103.792 9.65779 104.338 9.61182C104.894 9.61695 105.442 9.75133 105.939 10.0044C106.435 10.2574 106.865 10.6222 107.196 11.07C107.854 11.9676 108.319 12.9914 108.563 14.0774C109.668 18.12 109.653 22.3868 108.522 26.4219C108.359 27.0646 108.131 27.6892 107.842 28.286C107.406 29.0872 106.889 29.8422 106.301 30.5395C105.249 31.8817 104.106 33.2901 102.49 33.8535" stroke="#1D1D1B" stroke-miterlimit="10"/>
<path d="M104.412 16.6621C103.985 18.8934 103.278 21.0618 102.308 23.1161C101.753 24.2677 101.107 25.3613 100.46 26.43L98.1158 30.3985C96.1854 33.6628 94.1887 37.0264 91.2393 39.3876" stroke="#1D1D1B" stroke-miterlimit="10"/>
<path d="M97.7346 21.434C98.158 22.194 98.3804 23.0495 98.3808 23.9194C98.5368 25.8126 98.5645 27.7142 98.4636 29.6112" stroke="#1D1D1B" stroke-miterlimit="10"/>
<path d="M91.4299 38.4436L88.3645 35.9581C87.536 35.2788 86.7075 34.5911 85.879 33.8455C84.4287 32.4252 83.07 30.9143 81.8111 29.3219C81.1203 28.54 80.5096 27.6907 79.9884 26.7867C79.4308 25.6124 79.019 24.3743 78.7623 23.0999C78.5672 22.3605 78.4123 21.611 78.2983 20.8547C78.1989 19.7717 78.1989 18.6818 78.2983 17.5988C78.4052 14.6839 78.9498 11.8016 79.9139 9.04872C80.8935 6.2751 82.7009 3.86904 85.0919 2.15567C85.9351 1.54189 86.9171 1.14627 87.9502 1.00406C88.7319 0.974519 89.5113 1.10641 90.2397 1.3915C90.9681 1.67659 91.6299 2.10877 92.1838 2.66105C93.2941 3.74254 94.2228 4.99581 94.9344 6.37269C96.148 8.29074 96.9675 10.4312 97.3453 12.6692" stroke="#1D1D1B" stroke-miterlimit="10"/>
<path d="M92.2832 19.4382C92.6702 17.2984 92.534 15.0966 91.8863 13.0208C91.2385 10.9449 90.0985 9.05637 88.5633 7.51624" stroke="#1D1D1B" stroke-miterlimit="10"/>
<path d="M85.1664 14.2186C86.7205 14.8047 88.1072 15.763 89.2049 17.0095C90.3027 18.2561 91.078 19.7528 91.4629 21.3685" stroke="#1D1D1B" stroke-miterlimit="10"/>
<path d="M105.39 98.1537C105.508 98.8335 105.694 99.4996 105.945 100.142C106.948 102.744 108.919 104.831 110.841 106.845L114.346 110.515C115.274 111.484 116.202 112.453 117.113 113.439C121.651 118.318 125.855 123.497 129.698 128.94" stroke="#1D1D1B" stroke-miterlimit="10"/>
<path d="M110.833 106.835C115.052 112.84 117.604 119.855 118.231 127.166" stroke="#1D1D1B" stroke-miterlimit="10"/>
<path d="M114.272 110.821C114.993 111.472 115.809 112.011 116.691 112.42C120.554 114.374 124.714 115.676 129.002 116.272" stroke="#1D1D1B" stroke-miterlimit="10"/>
<path d="M119.06 115.733C122.188 119.604 123.802 124.48 123.6 129.453" stroke="#1D1D1B" stroke-miterlimit="10"/>
<path d="M123.791 121.177C124.693 121.828 125.38 122.734 125.763 123.778C126.68 125.826 127.264 128.008 127.494 130.24" stroke="#1D1D1B" stroke-miterlimit="10"/>
<path d="M101.405 97.1666C99.2025 104.212 94.9404 110.436 89.1681 115.037" stroke="#1D1D1B" stroke-miterlimit="10"/>
<path d="M97.5195 105.021C97.8022 105.473 98.0435 105.95 98.2403 106.446C98.3779 106.861 98.4751 107.288 98.5303 107.722C98.8821 110.341 98.2951 113 96.8733 115.228" stroke="#1D1D1B" stroke-miterlimit="10"/>
</svg>
