<svg width="114" height="169" viewBox="0 0 114 169" fill="none" xmlns="http://www.w3.org/2000/svg">
<path d="M43.7996 125.529C42.2208 128.939 41.2677 132.605 40.9857 136.353C40.8417 138.805 40.8417 141.265 40.9857 143.718C41.3163 151.685 41.6638 159.736 43.7742 167.449" stroke="#1D1D1B" stroke-miterlimit="10"/>
<path d="M41.8161 136.978C40.6795 136.652 39.6613 136.004 38.8836 135.114C38.2993 134.084 38.0283 132.905 38.1038 131.723C37.9795 127.469 37.9795 123.214 38.1038 118.959" stroke="#1D1D1B" stroke-miterlimit="10"/>
<path d="M45.0034 118.597C43.9185 122.547 44.444 126.759 45.3594 130.743" stroke="#1D1D1B" stroke-miterlimit="10"/>
<path d="M53.97 113.469C54.5616 118.625 53.8506 123.847 51.902 128.657C51.5121 129.555 51.0544 130.436 50.6222 131.318L47.3846 137.759C44.2232 144.031 40.9602 150.905 42.2993 157.804C42.3233 156.305 42.6485 154.827 43.2557 153.457C43.8629 152.087 44.7396 150.853 45.8336 149.828" stroke="#1D1D1B" stroke-miterlimit="10"/>
<path d="M49.2999 115.768C49.5794 121.632 48.8337 127.5 47.0963 133.108C46.3684 134.982 45.9173 136.952 45.7572 138.957" stroke="#1D1D1B" stroke-miterlimit="10"/>
<path d="M47.8001 143.496C48.5459 151.743 48.7748 160.388 45.3507 167.931" stroke="#1D1D1B" stroke-miterlimit="10"/>
<path d="M50.8342 137.684C51.7818 139.254 52.458 140.973 52.8344 142.769C54.9097 151.175 54.793 159.974 52.4954 168.322" stroke="#1D1D1B" stroke-miterlimit="10"/>
<path d="M54.1311 130.675C55.4899 131.652 56.6205 132.913 57.445 134.37" stroke="#1D1D1B" stroke-miterlimit="10"/>
<path d="M54.8179 134.649C54.9032 136.127 55.1883 137.587 55.6654 138.989C58.2081 147.845 56.8435 157.296 55.479 166.407" stroke="#1D1D1B" stroke-miterlimit="10"/>
<path d="M58.9283 125.826V149.625" stroke="#1D1D1B" stroke-miterlimit="10"/>
<path d="M61.3693 128.529C63.217 135.309 62.2762 142.632 60.3862 149.438C60.1886 150.645 59.5627 151.74 58.6233 152.523" stroke="#1D1D1B" stroke-miterlimit="10"/>
<path d="M63.8271 134.98C63.6152 136.591 64.4373 138.133 64.7933 139.718C64.9911 140.735 65.0961 141.767 65.1068 142.803C65.2679 147.041 65.4289 151.389 64.5475 155.567" stroke="#1D1D1B" stroke-miterlimit="10"/>
<path d="M60.8012 160.814C61.7392 163.3 62.5698 165.817 63.293 168.366" stroke="#1D1D1B" stroke-miterlimit="10"/>
<path d="M65.3103 116.106C66.2468 116.364 67.1097 116.838 67.8296 117.49C68.5494 118.142 69.1061 118.954 69.4548 119.861C70.1407 121.678 70.4521 123.615 70.3701 125.556C70.4077 127.298 70.2485 129.038 69.8955 130.743C69.565 132.176 69.048 133.549 68.6327 134.981C67.2681 139.736 67.3444 144.762 67.4207 149.703C67.4885 153.483 67.6241 157.517 69.7599 160.645" stroke="#1D1D1B" stroke-miterlimit="10"/>
<path d="M73.1327 128.268C72.7429 133.641 74.8956 138.896 74.9889 144.286C75.0478 149.502 73.1866 154.558 69.7595 158.491" stroke="#1D1D1B" stroke-miterlimit="10"/>
<path d="M70.3787 160.763V169.001" stroke="#1D1D1B" stroke-miterlimit="10"/>
<path d="M69.4376 111.596C69.8396 111.507 70.2562 111.507 70.6581 111.596C70.8511 111.644 71.024 111.752 71.1519 111.904C71.2798 112.056 71.3562 112.245 71.37 112.443C71.37 112.884 70.9209 113.189 70.5225 113.359C69.6616 113.667 68.7497 113.808 67.8358 113.774C62.4115 113.825 56.9872 112.359 51.5968 113.037C48.5698 113.537 45.6078 114.373 42.7654 115.528L37.6802 117.376C37.023 117.679 36.3005 117.813 35.5783 117.766C35.2193 117.73 34.8852 117.567 34.6364 117.305C34.3876 117.044 34.2407 116.702 34.2222 116.342C34.2731 115.673 34.9002 115.206 35.4766 114.85C36.4092 114.216 37.3995 113.671 38.4345 113.223C39.6089 112.8 40.8248 112.501 42.062 112.333C45.2157 111.641 48.4507 111.393 51.6731 111.596C52.3851 111.672 53.0885 111.791 53.8005 111.816C55.1028 111.799 56.4014 111.672 57.6822 111.435C61.9091 111.005 66.1685 111.005 70.3954 111.435" stroke="#1D1D1B" stroke-miterlimit="10"/>
<path d="M70.8535 111.359C70.3622 111.116 69.8587 110.898 69.3449 110.706C66.7036 109.757 63.922 109.255 61.1152 109.223C58.3133 109.189 55.5118 109.317 52.7245 109.605" stroke="#1D1D1B" stroke-miterlimit="10"/>
<path d="M70.9211 111.113C71.2127 110.617 71.3109 110.03 71.1967 109.465C71.0825 108.901 70.7641 108.398 70.3024 108.054C69.3498 107.395 68.2227 107.035 67.0647 107.02C61.7591 106.511 56.4281 107.46 51.275 108.8" stroke="#1D1D1B" stroke-miterlimit="10"/>
<path d="M55.5042 111.547C54.5549 110.894 53.8091 109.928 52.9616 109.207C52.126 108.598 51.2031 108.118 50.224 107.784C46.0565 106.197 41.5957 105.53 37.1464 105.826" stroke="#1D1D1B" stroke-miterlimit="10"/>
<path d="M37.1716 113.934C36.8947 113.569 36.714 113.141 36.6462 112.688C36.4662 112.087 36.5145 111.441 36.7818 110.874C37.1564 109.939 37.8378 109.159 38.7142 108.662" stroke="#1D1D1B" stroke-miterlimit="10"/>
<path d="M42.8165 110.087C43.9381 110.276 44.9596 110.848 45.7066 111.705" stroke="#1D1D1B" stroke-miterlimit="10"/>
<path d="M46.0032 109.383C46.335 109.317 46.6776 109.325 47.0059 109.407C47.3343 109.489 47.6403 109.643 47.9017 109.858C48.4226 110.293 48.8642 110.815 49.2069 111.401" stroke="#1D1D1B" stroke-miterlimit="10"/>
<path d="M69.87 128.928C69.2038 128.963 68.5467 128.762 68.0139 128.36C67.4794 127.966 66.9929 127.511 66.5646 127.004L63.9711 124.199C63.418 123.615 62.9081 122.992 62.4456 122.334C62.1913 121.97 61.9625 121.58 61.7082 121.215C61.4539 120.851 61.259 120.597 61.0217 120.292L59.0469 117.749C58.8256 117.453 58.5879 117.17 58.335 116.901C58.1005 116.692 57.8823 116.466 57.6824 116.223C57.5044 115.978 57.3857 115.689 57.2247 115.435C56.6314 114.511 55.4194 113.977 55.1906 112.892" stroke="#1D1D1B" stroke-miterlimit="10"/>
<path d="M56.8431 113.708C57.7326 114.236 58.5824 114.828 59.3858 115.48C61.5543 117.313 63.541 119.351 65.3186 121.565C65.7897 122.101 66.2257 122.667 66.6238 123.26C67.1662 124.108 67.5561 125.014 68.0646 125.862C68.5349 126.744 69.262 127.462 70.1496 127.922" stroke="#1D1D1B" stroke-miterlimit="10"/>
<path d="M71.3192 106.045C73.2511 104.892 75.065 103.553 76.7351 102.045C78.789 99.9547 80.6132 97.6504 82.1763 95.1715C85.041 90.9338 87.9226 86.696 89.872 82.0261C91.1263 78.9919 91.9739 75.7797 93.4062 72.8217C96.6439 66.1431 102.729 60.8968 104.696 53.7351C105.406 50.5779 105.691 47.3398 105.543 44.107C105.543 43.1238 105.297 41.8355 104.314 41.7084C103.645 41.6236 103.094 42.183 102.619 42.6916L94.2792 52.2942C92.1688 54.7182 90.0415 57.1761 87.3294 58.9135C86.4818 59.4729 85.5665 59.9391 84.7274 60.5154C81.3796 62.8038 79.3285 66.4482 77.3877 70.0503L76.5401 71.5589" stroke="#1D1D1B" stroke-miterlimit="10"/>
<path d="M56.1737 107.341C55.7414 106.01 54.6396 105.027 53.7751 103.951C52.7164 102.472 51.8479 100.866 51.1901 99.1705L48.0373 92.0342C46.6863 89.2946 45.7058 86.3875 45.1217 83.3893C44.5539 79.5838 45.2658 75.7614 46.0964 71.9644C46.6264 69.2259 47.4799 66.56 48.639 64.0229C49.3617 62.625 50.1683 61.2721 51.0545 59.9716L54.2752 55.022C55.3177 53.4286 56.411 51.7844 58.0552 50.8266C58.6667 50.4323 59.3887 50.245 60.1148 50.2927C61.5302 50.4707 62.4286 51.8522 63.132 53.0896C67.5901 60.9463 72.1838 69.2777 72.0906 78.304C72.1063 79.6412 71.9322 80.9738 71.5736 82.262C70.9743 83.9253 70.1926 85.5171 69.2428 87.0083C65.7597 93.1861 63.5358 99.9931 62.6998 107.036" stroke="#1D1D1B" stroke-miterlimit="10"/>
<path d="M52.7412 108.308C50.4026 105.704 47.8666 103.284 45.1556 101.07C42.613 99.0104 39.9433 97.1289 37.5786 94.8829C32.1081 89.6993 28.5608 82.811 27.5183 75.3471C26.4758 67.8832 27.9999 60.2866 31.8407 53.8024C32.2518 52.9704 32.8893 52.2713 33.6799 51.7853C35.19 57.7726 36.3671 63.839 37.2057 69.9566C37.4041 71.7167 37.7098 73.4631 38.121 75.186C38.6635 77.1946 39.5364 79.0931 40.206 81.0594C42.5198 87.8398 42.5622 95.5186 46.6304 101.401" stroke="#1D1D1B" stroke-miterlimit="10"/>
<path d="M47.8423 106.801C47.088 104.639 44.4522 104.029 42.3333 103.088C40.7314 102.368 39.3076 101.292 37.7481 100.47C36.647 99.9138 35.5151 99.4214 34.3579 98.9948L16.0001 91.7737C14.9902 91.4085 14.0146 90.9547 13.0846 90.4177C11.8948 89.615 10.8076 88.6701 9.84694 87.6038L1.60881 79.1792C1.16809 78.73 0.727367 77.9588 1.21047 77.5858C1.37182 77.4672 1.56208 77.394 1.76137 77.374C8.45697 76.0603 15.7797 74.8313 21.7973 78.035C26.9928 80.8065 30.0863 86.341 32.1797 91.85" stroke="#1D1D1B" stroke-miterlimit="10"/>
<path d="M5.56671 79.5765C8.95689 79.2883 12.5081 79.0171 15.7372 80.2545C17.0626 80.8184 18.3264 81.517 19.5088 82.3395C29.4422 88.8055 38.5499 96.4588 46.6302 105.13" stroke="#1D1D1B" stroke-miterlimit="10"/>
<path d="M23.7132 78.9983C22.6792 76.4557 20.3738 74.6589 18.3567 72.7689C14.0512 68.7176 10.7457 63.7256 7.73696 58.6403C6.50802 56.5299 5.2706 54.3856 4.22812 52.1566C3.37655 50.6807 2.98963 48.9824 3.11784 47.2832C3.76198 46.9357 4.2705 47.885 4.59257 48.5376C5.28552 49.6504 6.29065 50.5347 7.48269 51.0802L12.4408 54.0127C15.8472 55.8849 19.0906 58.0396 22.1367 60.4541C24.6794 62.5729 26.9762 65.3444 27.0864 68.6244" stroke="#1D1D1B" stroke-miterlimit="10"/>
<path d="M7.52455 56.6835C7.19401 58.6328 9.15184 60.0737 10.8045 61.2094C17.9149 65.9492 23.6039 72.5318 27.2639 80.2537" stroke="#1D1D1B" stroke-miterlimit="10"/>
<path d="M46.2069 72.576C46.4449 70.9917 46.178 69.3726 45.4441 67.9484C44.7061 66.5412 43.7762 65.2434 42.6811 64.0921C42.2034 63.5538 41.697 63.0417 41.164 62.5581C40.4772 61.985 39.7615 61.4476 39.0197 60.9477L35.2227 58.2949" stroke="#1D1D1B" stroke-miterlimit="10"/>
<path d="M28.2725 63.124L22.06 52.1568C20.6159 49.7504 19.3579 47.2372 18.2969 44.6391C17.8561 43.4695 17.4917 42.266 16.9916 41.1303C16.1441 39.2487 14.966 37.5621 13.9913 35.7653C13.2116 34.333 12.5759 32.8243 11.9403 31.3242L10.2452 27.2729C8.97387 24.2726 7.70256 21.196 7.47372 17.95C7.35701 16.8996 7.50261 15.8367 7.89749 14.8564C8.10424 14.3702 8.4357 13.9472 8.85836 13.6302C9.28102 13.3133 9.77989 13.1135 10.3045 13.0511C11.4327 13.1179 12.4958 13.6011 13.2879 14.4072C20.136 20.0942 26.1621 27.1204 29.0691 35.545" stroke="#1D1D1B" stroke-miterlimit="10"/>
<path d="M30.561 57.3716C28.3319 54.3034 26.069 51.176 24.8909 47.5739C24.5688 46.5823 24.323 45.5568 23.9417 44.5906C23.5603 43.6244 23.0517 42.7345 22.611 41.8106C20.9264 38.2961 20.204 34.3977 20.5176 30.5129C20.5769 29.7331 21.0685 28.6991 21.8058 28.9619C21.7955 29.3731 21.8935 29.7798 22.0898 30.1412C22.2862 30.5027 22.574 30.8062 22.9246 31.0214C23.6284 31.4383 24.3759 31.7765 25.1536 32.03C27.4663 33.0822 29.5863 34.5147 31.4255 36.2677C39.6721 43.4464 46.9864 52.2693 49.868 62.8128" stroke="#1D1D1B" stroke-miterlimit="10"/>
<path d="M20.984 21.6482C20.8384 18.6782 20.9007 15.7017 21.1705 12.7405C23.4843 11.9692 25.8913 13.588 27.6033 15.2831C31.4589 19.1815 34.1656 24.067 35.4262 29.4032" stroke="#1D1D1B" stroke-miterlimit="10"/>
<path d="M34.4766 39.0116C34.2732 35.74 34.0952 32.316 35.4089 29.3072C35.697 28.6546 36.1886 27.9341 36.909 27.9511C37.6294 27.9681 38.1041 28.6885 38.4346 29.3241L41.8248 35.8756L45.4946 42.9272" stroke="#1D1D1B" stroke-miterlimit="10"/>
<path d="M45.3421 52.5995C44.9242 50.3881 44.6917 48.1456 44.6472 45.8955C44.5186 43.8229 44.8395 41.7471 45.5879 39.8101C46.0779 38.7778 46.6805 37.8029 47.3847 36.903C50.0514 33.3197 53.0788 30.0195 56.4195 27.0546" stroke="#1D1D1B" stroke-miterlimit="10"/>
<path d="M63.2933 53.3612C63.6759 50.1017 63.114 46.801 61.6745 43.8517C61.005 42.5041 60.1574 41.2413 59.6235 39.8428C58.1657 35.978 59.2251 31.4691 57.5555 27.6975C56.8948 26.415 56.1589 25.1726 55.3518 23.9768C51.504 17.4084 52.2753 9.06852 55.0552 2C55.1965 3.06356 55.5024 4.09865 55.9621 5.06811C56.4432 5.84282 57.0119 6.55949 57.6572 7.20392C62.4797 12.6706 65.6071 19.4086 68.2599 26.1974C69.8896 30.2853 71.2874 34.4618 72.4468 38.7071C74.2351 45.4282 75.159 52.7848 72.396 59.1584" stroke="#1D1D1B" stroke-miterlimit="10"/>
<path d="M66.8102 27.6297L71.353 22.4935C71.8866 21.8282 72.5049 21.2356 73.1922 20.7306C73.8532 20.2814 74.6245 20.0018 75.2517 19.5102C75.6331 19.222 76.0229 18.8321 76.506 18.8745C76.7158 18.9105 76.9153 18.9915 77.0909 19.1118C79.0198 20.2826 80.5546 22.0033 81.4981 24.053C82.1204 25.556 82.5669 27.1259 82.8287 28.7315C83.3181 30.7443 83.532 32.8143 83.4644 34.8846C83.1762 38.6816 81.0913 42.1566 80.4471 45.9366C79.8496 49.3648 80.4165 52.8944 82.0575 55.963" stroke="#1D1D1B" stroke-miterlimit="10"/>
<path d="M72.0228 21.7808C72.1514 18.458 72.0977 15.1306 71.8618 11.8137C71.7685 10.483 71.4804 8.93204 70.2684 8.35571C69.2768 7.90651 68.1072 8.35571 67.1749 8.94899C65.1609 10.2068 63.5263 11.9878 62.4456 14.1021" stroke="#1D1D1B" stroke-miterlimit="10"/>
<path d="M62.5388 52.5322C64.4543 50.8372 67.5054 50.9389 69.6582 52.2865C71.7668 53.7528 73.2582 55.9477 73.8451 58.4481C74.4223 60.9289 74.746 63.4619 74.8113 66.0082C75.1587 70.8053 75.8114 75.5261 75.8792 80.3147C75.947 85.1034 75.43 89.9683 73.523 94.3501L73.4721 93.6381" stroke="#1D1D1B" stroke-miterlimit="10"/>
<path d="M74.3112 64.8027C74.54 63.2263 75.5909 61.9126 76.5995 60.6836L84.38 51.2505C85.2193 50.1516 86.1708 49.1432 87.2193 48.2417C88.4906 47.2246 89.9907 46.5466 91.2027 45.4279C92.0503 44.682 92.7198 43.7328 93.4996 42.9784C95.052 41.5302 96.7804 40.283 98.6441 39.2662L106.611 34.503C108.722 33.1433 110.941 31.9612 113.247 30.9688C113.773 32.3248 112.603 33.6809 111.595 34.7234C109.085 37.3036 106.995 40.2606 105.399 43.487" stroke="#1D1D1B" stroke-miterlimit="10"/>
<path d="M79.9474 45.5718C80.5915 43.3173 82.4476 41.6392 84.1851 40.0967C84.903 39.4273 85.6835 38.8285 86.5159 38.3083C87.3974 37.8294 88.3157 37.4213 89.2619 37.0879C94.9969 34.863 100.272 31.599 104.823 27.4598C105.194 27.0146 105.722 26.7292 106.298 26.6631C106.693 26.7179 107.052 26.9267 107.294 27.2441C107.537 27.5614 107.645 27.9618 107.594 28.3582C107.479 29.146 107.151 29.8874 106.645 30.5025C104.82 33.1581 102.876 35.7233 100.814 38.1982" stroke="#1D1D1B" stroke-miterlimit="10"/>
<path d="M94.0504 38.4606C90.3309 40.3768 86.9058 42.8172 83.8799 45.7071C83.3061 46.2411 82.7628 46.807 82.2526 47.4022C81.4675 48.3768 80.8307 49.4621 80.3626 50.6228" stroke="#1D1D1B" stroke-miterlimit="10"/>
<path d="M73.2519 39.8006C72.345 38.4021 72.2179 36.6562 72.1077 34.9865C71.9636 32.7321 71.828 30.3929 72.6671 28.2909C72.9764 27.508 73.4116 26.7808 73.9553 26.1382" stroke="#1D1D1B" stroke-miterlimit="10"/>
<path d="M65.8357 20.8656V17.3568" stroke="#1D1D1B" stroke-miterlimit="10"/>
<path d="M56.0126 52.4791C55.4218 50.3126 55.1562 48.0704 55.2244 45.8259C55.2949 43.5711 56.065 41.3941 57.428 39.5964" stroke="#1D1D1B" stroke-miterlimit="10"/>
<path d="M46.868 54.1745C46.0474 50.7138 46.3441 47.0822 47.7155 43.8006C49.0804 40.5342 51.0502 37.5551 53.5212 35.02" stroke="#1D1D1B" stroke-miterlimit="10"/>
<path d="M36.6126 41.1386L36.4601 33.9684" stroke="#1D1D1B" stroke-miterlimit="10"/>
<path d="M44.1298 66.1749C44.3152 65.6631 44.3914 65.1181 44.3534 64.5751C44.3155 64.0321 44.1642 63.503 43.9094 63.022C42.9178 61.1659 40.621 60.4794 39.1801 58.9114C38.5543 58.2058 38.0554 57.3972 37.7054 56.5213C36.6912 54.294 36.2903 51.8362 36.5443 49.402" stroke="#1D1D1B" stroke-miterlimit="10"/>
<path d="M40.5956 67.7274C41.4719 69.5038 41.9848 71.4373 42.1042 73.4144C42.1466 74.084 42.1042 74.7536 42.1889 75.4231C42.3837 77.824 43.3263 80.1035 44.8841 81.9407" stroke="#1D1D1B" stroke-miterlimit="10"/>
<path d="M95.0758 46.4883C94.6097 47.7681 93.0248 48.1325 91.7873 48.7088C90.8176 49.1962 89.9216 49.8182 89.1261 50.5565C84.1237 54.9259 80.4105 60.5792 78.3877 66.9056" stroke="#1D1D1B" stroke-miterlimit="10"/>
<path d="M95.0846 58.8381C92.3703 64.5879 89.1451 70.0822 85.448 75.2551C81.134 81.2726 76.125 87.1207 74.2435 94.257" stroke="#1D1D1B" stroke-miterlimit="10"/>
<path d="M66.0901 106.102C65.6326 104.654 65.4659 103.13 65.5998 101.617C65.7336 100.105 66.1652 98.6332 66.8699 97.2879C67.5564 95.9742 68.5056 94.8131 69.2854 93.5418C70.1294 92.3087 70.5976 90.8573 70.633 89.3634" stroke="#1D1D1B" stroke-miterlimit="10"/>
</svg>
